<?xml version="1.0" standalone="no"?>
<!DOCTYPE svg PUBLIC "-//W3C//DTD SVG 20010904//EN"
 "http://www.w3.org/TR/2001/REC-SVG-20010904/DTD/svg10.dtd">
<svg version="1.0" xmlns="http://www.w3.org/2000/svg"
 width="700.000000pt" height="700.000000pt" viewBox="0 0 700.000000 700.000000"
 preserveAspectRatio="xMidYMid meet">
<metadata>
Created by potrace 1.14, written by Peter Selinger 2001-2017
</metadata>
<g transform="translate(0.000000,700.000000) scale(0.100000,-0.100000)"
fill="#000000" stroke="none">
<path d="M3080 5419 c-358 -39 -714 -177 -999 -389 -146 -108 -333 -287 -343
-329 -2 -8 34 -26 90 -46 163 -59 322 -176 407 -300 21 -30 40 -54 41 -52 2 2
-28 100 -66 217 -38 118 -70 218 -70 223 0 4 130 7 289 7 l289 0 16 -47 c8
-27 132 -428 276 -893 264 -854 340 -1094 345 -1088 1 2 140 447 309 990 168
543 310 998 316 1012 l10 26 285 0 c236 0 285 -2 285 -14 0 -7 -49 -174 -110
-371 -60 -197 -110 -360 -110 -364 0 -3 19 29 43 72 115 211 280 379 489 496
l56 32 27 -35 c75 -98 251 -437 234 -449 -195 -135 -344 -349 -405 -582 -23
-87 -27 -121 -28 -260 -1 -203 22 -310 97 -460 55 -110 151 -229 249 -307 l37
-29 19 38 c35 68 92 231 122 346 43 168 61 317 61 514 0 247 -34 449 -110 663
-16 46 -29 85 -28 86 1 1 25 13 52 27 233 116 568 97 780 -44 88 -59 160 -144
217 -256 l42 -83 298 0 c246 0 298 2 298 14 0 36 -52 211 -87 292 -171 395
-547 626 -1081 662 -247 17 -512 -18 -702 -93 l-85 -34 -45 52 c-354 412 -778
658 -1280 742 -115 19 -412 27 -530 14z"/>
<path d="M1115 4734 c-252 -39 -434 -105 -610 -224 -219 -148 -325 -335 -343
-609 -16 -232 26 -341 205 -523 76 -78 178 -135 342 -192 101 -35 421 -118
510 -131 l44 -7 -8 48 c-5 27 -9 155 -10 284 l-1 234 -80 13 c-188 29 -346
106 -392 193 -20 37 -23 55 -19 103 17 199 271 333 561 297 92 -12 97 -14 92
-34 -3 -11 -27 -86 -55 -166 -49 -142 -99 -365 -88 -393 3 -9 27 -16 64 -20
264 -29 342 -40 438 -57 130 -24 289 -72 360 -107 160 -80 291 -245 345 -433
28 -96 38 -307 21 -416 -24 -147 -83 -281 -183 -416 -95 -129 -176 -188 -348
-253 -41 -16 -77 -30 -79 -32 -19 -14 185 -175 337 -267 l93 -56 987 0 988 0
89 58 c50 32 135 95 190 139 98 80 273 249 264 256 -2 2 -31 24 -64 49 -272
206 -468 525 -546 888 -19 89 -23 136 -23 310 -1 122 4 235 12 279 7 40 11 75
10 76 -2 2 -132 -403 -289 -898 l-286 -902 -289 0 -288 0 -321 1005 c-176 553
-328 1028 -337 1055 l-18 50 5 -52 6 -53 -285 0 -285 0 -17 61 c-20 73 -79
167 -125 202 -49 36 -114 67 -194 93 -56 18 -69 26 -67 41 9 49 140 270 236
398 30 41 41 62 33 67 -7 3 -50 14 -97 23 -83 16 -416 29 -485 19z"/>
<path d="M5700 3165 l0 -265 325 0 c179 0 325 -3 325 -6 0 -31 -39 -144 -72
-206 -46 -88 -148 -194 -239 -246 -78 -44 -219 -88 -329 -102 -169 -22 -321 5
-480 83 -47 23 -88 43 -91 45 -4 2 -26 -32 -49 -75 -55 -99 -128 -209 -198
-297 l-55 -69 24 -18 c81 -63 284 -146 439 -181 90 -20 132 -23 290 -23 158 0
198 4 273 23 177 44 317 114 458 228 l79 64 0 -140 0 -140 250 0 250 0 0 795
0 795 -600 0 -600 0 0 -265z"/>
<path d="M1275 3008 c26 -161 110 -409 197 -582 l40 -79 56 7 c114 13 173 36
225 88 102 102 138 248 84 340 -50 86 -144 154 -277 200 -42 14 -299 68 -327
68 -2 0 -2 -19 2 -42z"/>
<path d="M105 2723 c22 -214 89 -387 213 -551 127 -169 342 -291 623 -354 92
-20 129 -23 324 -22 238 0 328 12 517 70 l88 27 -80 83 c-81 85 -210 251 -251
324 l-23 41 -61 -8 c-33 -4 -107 -8 -165 -7 -313 3 -563 177 -587 408 l-6 56
-299 0 -300 0 7 -67z"/>
</g>
</svg>
